<svg width="65" height="62" viewBox="0 0 65 62" fill="none" xmlns="http://www.w3.org/2000/svg">
<path d="M52.0967 51.6992C52.0966 52.5034 51.7311 53.3864 50.8311 54.3193C49.9238 55.2597 48.5393 56.1756 46.7119 56.9766C43.061 58.5768 37.9123 59.6035 32.1475 59.6035C26.3849 59.6035 21.2374 58.5767 17.5869 56.9766C15.7595 56.1755 14.3741 55.2598 13.4668 54.3193C12.5669 53.3864 12.2013 52.5033 12.2012 51.6992V36.8311L26.3857 45.6123C28.1192 46.6851 30.1094 47.2519 32.1475 47.252C34.1851 47.252 36.1799 46.6856 37.9141 45.6123L52.0967 36.8311V51.6992ZM60.6045 47.6602L61.1064 48.1084C61.4864 48.4472 61.7129 48.9144 61.7129 49.4287C61.7129 49.9255 61.5072 50.3758 61.166 50.7061L60.5693 51.2832L60.7412 52.0947L61.8242 57.2197C61.8378 57.2844 61.8211 57.3518 61.7793 57.4033C61.738 57.4543 61.676 57.4843 61.6094 57.4844H58.2598C58.21 57.4844 58.1623 57.4675 58.124 57.4375L58.0889 57.4033C58.0471 57.3517 58.0314 57.2843 58.0449 57.2197L58.0439 57.2188L59.1279 52.0947L59.2988 51.2832L58.7031 50.7061C58.3618 50.376 58.1553 49.9257 58.1553 49.4287C58.1553 48.9146 58.3817 48.4473 58.7617 48.1084L59.2637 47.6602V32.7129L60.6045 31.8828V47.6602ZM32.1475 2.05957C32.8038 2.05957 33.4626 2.23875 34.0498 2.59961V2.60059L62.291 20.082L62.292 20.083C62.6021 20.2751 62.7929 20.6155 62.793 20.9844C62.793 21.3534 62.6021 21.6947 62.291 21.8877L34.0527 39.3682C33.4653 39.7302 32.8053 39.9111 32.1475 39.9111C31.4885 39.9111 30.8304 39.7305 30.251 39.3711L30.25 39.3701L2.00879 21.8877H2.00781C1.69672 21.6943 1.50684 21.3529 1.50684 20.9844C1.50687 20.6156 1.69692 20.2745 2.00781 20.082H2.00879L30.25 2.60059L30.251 2.59961C30.8308 2.24018 31.4889 2.05962 32.1475 2.05957Z" stroke="#DDE6ED" stroke-width="3"/>
</svg>