<svg width="55" height="54" viewBox="0 0 55 54" fill="none" xmlns="http://www.w3.org/2000/svg">
<path d="M2.65332 36.9648C2.65332 36.9648 3.0372 41.6634 3.12642 43.1448C3.24537 45.1318 4.01313 47.3513 5.29454 48.8922C7.10312 51.0766 9.2334 51.8471 12.0774 51.8525C15.4215 51.8579 39.7386 51.8579 43.0827 51.8525C45.9267 51.8471 48.057 51.0766 49.8656 48.8922C51.147 47.3513 51.9148 45.1318 52.0364 43.1448C52.1229 41.6634 52.5068 36.9648 52.5068 36.9648" stroke="#DDE6ED" stroke-width="3.75" stroke-linecap="round" stroke-linejoin="round"/>
<path d="M18.0408 9.53164V8.52868C18.0408 5.23053 20.7118 2.55957 24.01 2.55957H30.9902C34.2856 2.55957 36.9593 5.23053 36.9593 8.52868L36.962 9.53164" stroke="#DDE6ED" stroke-width="3.75" stroke-linecap="round" stroke-linejoin="round"/>
<path d="M27.5001 40.2121V36.7139" stroke="#DDE6ED" stroke-width="3.75" stroke-linecap="round" stroke-linejoin="round"/>
<path fill-rule="evenodd" clip-rule="evenodd" d="M2.50684 17.8029V27.1757C7.69196 30.5955 13.9044 32.9907 20.7224 33.9396C21.5388 30.9632 24.2233 28.7815 27.4863 28.7815C30.698 28.7815 33.4365 30.9632 34.1989 33.9667C41.0439 33.0178 47.2806 30.6226 52.4928 27.1757V17.8029C52.4928 13.2233 48.808 9.53589 44.2285 9.53589H10.7982C6.21861 9.53589 2.50684 13.2233 2.50684 17.8029Z" stroke="#DDE6ED" stroke-width="3.75" stroke-linecap="round" stroke-linejoin="round"/>
</svg>
